<?xml version="1.0" encoding="utf-8"?>
<!-- Generator: Adobe Illustrator 25.0.0, SVG Export Plug-In . SVG Version: 6.00 Build 0)  -->
<svg version="1.1" id="Layer_1" xmlns="http://www.w3.org/2000/svg" xmlns:xlink="http://www.w3.org/1999/xlink" x="0px" y="0px"
	 viewBox="0 0 300 100" style="enable-background:new 0 0 300 100;" xml:space="preserve">
<style type="text/css">
	.st0{fill:#FFFFFF;}
</style>
<g>
	<path class="st0" d="M67,25.8c0.1,0.4-0.1,0.6-0.5,0.6c-0.1,0-0.1,0-0.2,0H65c-0.1,0-0.5,0.1-1.3,0.2c-0.4,0-0.7-0.1-0.8-0.3
		c0-0.1,0-0.2,0-0.3c-0.4-0.1-1-0.1-1.7-0.2c-0.8-0.1-1.3-0.2-1.7-0.2c-4.1-0.4-6.2-0.6-6.3-0.7c-5-0.4-9.2-0.7-12.8-0.7
		c0.2,2.8,0.1,6.1-0.2,9.8C39.9,37,39,44.3,37.7,55.9c-0.2,1.2-0.4,3.1-0.7,5.5c-0.3,2.5-0.5,4.3-0.6,5.5c-0.1,0.6-0.2,1.6-0.3,2.8
		c-0.1,1.2-0.2,2.2-0.3,2.8c0,0.3-0.1,0.8-0.2,1.4c-0.1,0.6-0.2,1.1-0.2,1.3c0,0.1,0,0.3,0,0.5c-0.1,0.4-0.1,0.7-0.2,0.9
		c-0.1,0.1-0.2,0.3-0.3,0.6c-0.2,0.3-0.2,0.5-0.3,0.6c-0.2,0.3-0.5,0.4-1,0.1c-0.2-0.1-0.3-0.3-0.3-0.4c-0.2-1-0.2-1.6-0.2-1.6
		c0-0.4,0-0.9,0.2-1.5c0-0.1,0-0.2,0-0.4c0-0.1,0-0.2,0-0.3c0-0.1,0-0.2,0-0.3c0-0.1,0-0.2,0-0.3c0-0.1,0-0.2,0-0.3
		c0-0.1,0-0.2,0-0.3c0-0.1,0-0.2,0-0.3c0-0.1,0-0.2,0-0.3s0-0.2,0-0.3c0.1-0.7,0.2-1.7,0.4-3c0.2-1.4,0.3-2.4,0.4-3.1
		c0.3-2.4,0.8-6,1.4-10.9c0.6-4.9,1-8.5,1.4-10.9c1-7.3,1.5-11.5,1.5-12.6c0.2-2.4,0.3-4.6,0.2-6.6c0,0-0.2,0-0.3,0h-8.2
		c-7.4,0.1-15,0.7-22.8,1.7c-0.4,0-0.6-0.1-0.6-0.3c0-0.2,0.1-0.3,0.3-0.3c5-0.8,9.3-1.3,12.8-1.6c5.8-0.5,11.9-0.7,18.3-0.7
		c0-0.2,0-0.4,0.2-0.7c0.1-0.3,0.2-0.6,0.2-0.7c0.1-0.3,0.4-0.4,0.9-0.2c0.2,0.1,0.3,0.2,0.4,0.3c0.1,0.6,0.2,1.1,0.2,1.3
		c0.3,0,0.8,0,1.4,0c0.6,0,1.1,0,1.4,0c3.3,0.1,7.1,0.3,11.5,0.7c5.2,0.5,9,1,11.6,1.4C66.6,25.2,66.9,25.4,67,25.8z"/>
	<path class="st0" d="M49.2,55.8c0.1-0.3,0.4-0.3,1-0.2c0.2,0.1,0.3,0.2,0.3,0.2c-0.4,2.2-0.6,3.8-0.6,4.8c0.1,2.1,0.6,3.1,1.7,3.2
		c0.8,0,1.5-0.2,2.1-0.4c0.4-0.2,1-0.4,1.7-0.8c0.4-0.2,0.7-0.3,0.9-0.4c3.7-1.8,7.1-3.6,10.1-5.5c0.3-0.1,0.6-0.1,0.9,0.1
		c0.1,0.1,0.1,0.3-0.2,0.6c-1.8,1.3-5.5,3.4-11.1,6.2c-0.2,0.1-0.3,0.1-0.4,0.2c-1.8,0.8-3.1,1.3-3.8,1.4c-0.5,0-1-0.1-1.5-0.3
		c-1.2-0.6-1.8-2-1.8-4.2c0-0.2,0-0.3,0-0.4C48.7,58.8,48.9,57.3,49.2,55.8z M50.4,52c0.4-0.1,0.7-0.1,0.8,0.1
		c0.1,0.2,0.2,0.5,0.2,0.9c0,0.1,0,0.2-0.2,0.3c-0.1,0.1-0.3,0.2-0.6,0.2c-0.3,0-0.5-0.1-0.6-0.3c0,0,0-0.1,0-0.2l0-0.2
		C50.1,52.4,50.2,52.2,50.4,52z"/>
	<path class="st0" d="M80.4,56.7c0.3-0.2,0.6-0.2,0.9,0c0,0.1,0,0.2-0.1,0.3C78.7,59,76,60.6,73,61.8c-1,0.4-1.9,0.7-2.7,0.9
		c-2.5,0.6-4.1,0.1-4.7-1.5c-0.2-0.5-0.2-1-0.2-1.5c0.1-1.4,0.6-2.7,1.5-3.9c1-1.4,2.1-2,3.1-1.7c0.6,0.2,0.8,0.6,0.9,1
		c0,0.3-0.3,0.9-0.9,1.6c-0.9,1-1.9,1.7-3,2.3c-0.1,1.5,0.3,2.3,1.2,2.5c2.2,0.4,5.7-0.9,10.6-4C79.4,57.4,79.9,57,80.4,56.7z
		 M68.2,55.9c-0.5,0.8-0.9,1.6-1.1,2.5c1-0.6,1.7-1.2,2.3-2c0.6-0.8,0.7-1.4,0.4-1.6C69.5,54.5,68.9,54.9,68.2,55.9
		C68.2,55.8,68.2,55.9,68.2,55.9z"/>
	<path class="st0" d="M93.2,56.7c0.2-0.1,0.5-0.1,0.8,0.2c0.1,0.2,0.2,0.3,0.1,0.4c-1.6,0.9-3.2,1.3-4.7,1c-1.5-0.3-2.6-1-3.2-2
		c-0.1-0.2-0.2-0.5-0.3-0.9s-0.2-0.7-0.3-0.8h-0.1l-0.2,0.1c-0.2,0.2-0.4,0.4-0.6,0.8c-1.9,2.6-3.2,5.5-4.1,8.7
		c-0.1,0.4-0.4,0.5-1,0.3c-0.4-0.1-0.6-0.3-0.5-0.5c0.6-2.9,0.9-4.7,1-5.4c0.1-0.6,0.2-1.5,0.3-2.6c0-0.1,0-0.3,0-0.6
		c0-0.3,0.1-0.5,0.1-0.7c0-0.6,0.2-1,0.4-1.3c0.1-0.2,0.4-0.2,0.7,0c0.1,0.1,0.1,0.1,0.1,0.2c0.2,0.5,0.3,1.4,0.2,2.6
		c0,0.1,0,0.3-0.1,0.5c0,0.3-0.1,0.4-0.1,0.5c0.5-1,1.1-1.8,1.8-2.6c0.6-0.7,1.3-1,1.9-1c0.7,0,1.3,0.4,1.6,1.1
		c0.1,0.1,0.2,0.4,0.3,0.7c0.2,0.4,0.3,0.7,0.4,0.9c0.3,0.4,0.8,0.8,1.3,1C90.2,57.6,91.6,57.5,93.2,56.7z"/>
	<path class="st0" d="M117.9,56.9c0.1,0.2,0,0.4-0.4,0.6c-2.2,1.5-4.4,2.7-6.5,3.6c-2.6,1.2-4.8,1.3-6.6,0.5
		c-1.3-0.7-2.1-1.8-2.4-3.4c-0.1-0.5-0.3-1-0.5-1.3c-0.2-0.2-0.4-0.2-0.7,0c0,0-0.1,0-0.2,0.1s-0.1,0.1-0.2,0.1
		c-0.2,0.2-0.4,0.4-0.7,0.7c-0.3,0.3-0.6,0.6-0.7,0.7c-0.7,0.6-1.7,1.5-3,2.7c-1.4,1.2-2.4,2.1-3,2.7c-0.3,0.2-0.7,0.2-1.2,0
		c-0.3-0.2-0.4-0.3-0.3-0.5c0.1-0.4,0.2-0.9,0.4-1.6c0.1-0.4,0.2-0.7,0.2-0.9c0.1-0.3,0.2-0.7,0.3-1.2c0.1-0.5,0.2-1,0.3-1.2
		c0.1-0.5,0.3-1.4,0.6-2.5c0.3-1.1,0.5-2,0.6-2.5c0-0.3,0.3-0.4,0.8-0.3c0.3,0.1,0.4,0.3,0.4,0.5l-1.1,5.1c-0.1,0.3-0.2,0.7-0.3,1.2
		c-0.1,0.6-0.2,1-0.2,1.3v0.2l4.8-4.5c0.9-0.8,1.5-1.3,1.8-1.5c0.4-0.2,0.8-0.2,1.3-0.2c0.8,0.2,1.4,0.8,1.7,1.8
		c0.5,2.2,1.3,3.4,2.3,3.7c1.2,0.3,2.8,0.2,4.8-0.5c0.3-0.1,0.6-0.2,0.9-0.3c0.6-0.3,2.4-1.2,5.3-2.9c0.2-0.1,0.3-0.2,0.4-0.2
		C117.3,56.6,117.7,56.6,117.9,56.9z"/>
	<path class="st0" d="M135,56.8c0.2-0.2,0.4-0.2,0.8,0c0.1,0.1,0.2,0.3,0.1,0.4c-1,1.2-2.2,2.2-3.5,3c-3.2,2.1-5.8,2.5-7.7,1
		c-1.1-0.9-1.7-2.3-1.7-4.1c-0.6,0.9-1.4,2-2.7,3.5c-1.2,1.3-1.9,2-2.1,2.2c-0.1,0.1-0.2,0.1-0.2,0.2c-1,0.8-1.9,0.9-2.8,0.4
		c-1.3-0.8-1.5-2.1-0.5-4.1c0.3-0.4,0.5-0.8,0.8-1.2c1.2-1.5,2.9-2.5,5.1-3.2c0.8-0.2,1.5-0.2,2.2,0.1c0.2-0.3,0.4-0.7,0.6-1.3
		c0.2-0.3,0.5-0.4,1.1-0.2c0.3,0.2,0.5,0.4,0.5,0.6c-0.4,2.2-0.5,3.8-0.2,4.8c0.3,0.9,0.9,1.5,1.9,1.8c0.2,0,0.3,0.1,0.4,0.1
		c1.6,0.2,3.5-0.6,5.8-2.3C133.9,58,134.5,57.4,135,56.8z M117.6,61.8c2-2,3.7-4,4.9-6l-0.1,0c-0.1-0.2-0.5-0.2-1,0
		c-0.7,0.2-1.4,0.6-2.2,1.2c-1.3,1-2.3,2.1-3.1,3.4c-0.5,0.9-0.5,1.7-0.2,2.2c0.2,0.2,0.5,0.2,0.8,0c0.1-0.1,0.3-0.2,0.5-0.4
		C117.4,62,117.5,61.9,117.6,61.8z"/>
	<path class="st0" d="M159.9,56.9c0.1,0.2,0,0.4-0.4,0.6c-2.2,1.5-4.4,2.7-6.5,3.6c-2.6,1.2-4.8,1.3-6.6,0.5
		c-1.3-0.7-2.1-1.8-2.4-3.4c-0.1-0.5-0.3-1-0.5-1.3c-0.2-0.2-0.4-0.2-0.7,0c0,0-0.1,0-0.1,0.1c-0.1,0.1-0.1,0.1-0.1,0.1
		c-0.2,0.2-0.4,0.4-0.7,0.7c-0.3,0.3-0.6,0.6-0.7,0.7c-0.6,0.6-1.6,1.5-3,2.7c-1.4,1.2-2.4,2.1-3,2.7c-0.3,0.2-0.7,0.2-1.2,0
		c-0.3-0.2-0.4-0.3-0.3-0.5c0.1-0.4,0.2-0.9,0.4-1.6c0.1-0.4,0.2-0.7,0.2-0.9c0.1-0.3,0.2-0.7,0.3-1.2c0.1-0.5,0.2-1,0.3-1.2
		c0.1-0.5,0.3-1.4,0.6-2.5c0.3-1.1,0.5-2,0.6-2.5c0-0.3,0.3-0.4,0.8-0.3c0.3,0.1,0.4,0.3,0.4,0.5l-1.1,5.1c-0.1,0.3-0.2,0.7-0.3,1.2
		c-0.1,0.6-0.2,1-0.2,1.3v0.2l4.8-4.5c0.9-0.8,1.5-1.3,1.8-1.5c0.4-0.2,0.9-0.2,1.3-0.2c0.9,0.2,1.4,0.8,1.7,1.8
		c0.5,2.2,1.3,3.4,2.3,3.7c1.2,0.3,2.8,0.2,4.8-0.5c0.3-0.1,0.6-0.2,0.9-0.3c0.6-0.3,2.4-1.2,5.3-2.9c0.2-0.1,0.3-0.2,0.4-0.2
		C159.2,56.6,159.6,56.6,159.9,56.9z"/>
	<path class="st0" d="M205.9,45c-0.1,0.2-0.4,0.3-0.7,0.1c-0.2-0.1-0.2-0.3-0.2-0.4c0.5-0.8,1-1.9,1.6-3.2c1.1-2.6,2-5,2.5-7.2
		c0.6-2.6,0.9-4.7,0.8-6.1c-0.2-2.2-0.9-3.6-2.2-4.4c-0.9-0.5-2-0.5-3.5-0.3c-1.2,0.2-2.3,0.5-3.2,0.8c-3.2,1.3-6.7,4-10.6,8.1
		c-0.1,0.1-0.1,0.1-0.1,0.2c-3.2,3.5-5.9,7.2-8.1,11c-2.4,4.1-4.2,8.3-5.5,12.4c-1.4,4.6-2,8.2-1.7,10.9c0.1,0.8,0.3,1.6,0.5,2.3
		c0.6,2,1.8,3.5,3.5,4.7c0.9,0.6,1.8,1,2.6,1.3c0.3,0.1,0.7,0.2,1.4,0.3c0.1,0,0.2,0,0.4,0.1c0.2,0,0.3,0.1,0.4,0.1
		c0.2,0,0.4,0.1,0.6,0.1c3.8,0.3,8.4-0.9,13.9-3.6c5.4-2.6,10.1-5.4,14.1-8.6c2.3-1.8,5-4,8-6.8c0.4-0.3,0.8-0.4,1.2-0.2
		c0.2,0.2,0.2,0.3,0.1,0.5c-1,1.2-3,3.1-5.9,5.5c-6.8,5.7-13.6,9.8-20.2,12.3c-4.7,1.8-8.5,2.5-11.4,2.3c-1.3-0.1-2.5-0.4-3.6-0.8
		c-2.4-0.8-4.2-2.2-5.6-4c-1.4-1.8-2.1-4-2.1-6.5c0-2.1,0.3-4.4,0.9-7c0.5-2,1.2-4.3,2.3-6.8c1.8-4.5,4.1-8.7,6.9-12.7
		c2.8-4.1,6-7.7,9.6-10.8c4.4-3.9,8.6-5.9,12.6-6.1c2.6-0.1,4.4,0.8,5.3,2.6c0.7,1.4,0.9,3.2,0.7,5.4c-0.3,2.2-0.9,4.6-1.8,7.2
		C208.2,40.5,207.1,42.8,205.9,45z"/>
	<path class="st0" d="M242.6,56.7c0.3,0.2,0.4,0.3,0.3,0.5c-1,1.1-2.2,2.3-3.7,3.4c-1.2,1-2.4,1.8-3.4,2.3c-1.4,0.8-2.6,1.1-3.8,1
		c-1.9-0.2-3.1-1.1-3.8-2.6c-0.2-0.5-0.3-1.1-0.3-1.7c-1.5,1.8-3,3.1-4.3,4c-0.9,0.6-1.9,0.5-2.7-0.2c-0.3-0.2-0.5-0.5-0.6-0.7
		c-0.5-0.8-0.6-2-0.4-3.5c0.3-1.9,0.8-3.4,1.3-4.4c0.2-0.3,0.5-0.3,1-0.1c0.2,0.1,0.3,0.3,0.3,0.4c0,0.2-0.1,0.4-0.1,0.5
		c-0.5,1.9-0.8,3.3-0.9,4.3c-0.1,0.8,0,1.4,0.1,1.9c0.2,0.5,0.4,0.9,0.6,0.9c0.4,0,1-0.4,1.8-1.2c0.6-0.5,1.2-1.1,1.7-1.6
		c1.2-1.2,2.1-2.5,2.9-3.7c0.2-0.3,0.6-0.4,1.3-0.2c0.4,0.2,0.5,0.4,0.5,0.6c-0.6,2.1-0.7,3.5-0.3,4.5c0,0.1,0.1,0.2,0.1,0.2
		c0.8,1.5,2.4,1.7,4.8,0.4c0.3-0.2,0.6-0.3,0.8-0.5c1.3-0.8,3.3-2.5,6-4.8C242,56.6,242.2,56.6,242.6,56.7z"/>
	<path class="st0" d="M264.2,35.8c0.2,0.1,0.2,0.2,0.1,0.4c-0.1,0.1-0.1,0.1-0.1,0.2c-0.3,0.1-1,0.1-2,0c-0.2,0-0.6,0-1,0
		c-0.5-0.1-0.8-0.1-1-0.1c-1,0-2.4,0-4.3,0c-3.5,0-6.6,0.1-9.4,0.3c0,0.1-0.1,0.3-0.1,0.6c0,0.3-0.1,0.5-0.1,0.6c-0.3,2-0.8,5-1.5,9
		c-0.5,3-0.9,5.2-1.1,6.7c-0.5,3.6-0.9,6.2-1,7.9l-0.2,4v2c0,1.1-0.1,1.7-0.1,2c-0.1,0.3-0.4,0.3-0.8,0.1c-0.1-0.1-0.2-0.2-0.3-0.2
		c-0.2-0.4-0.2-1.2-0.2-2.3v-2.2c0-1.5,0.1-2.9,0.2-4.4c0.3-3.5,1.1-8.7,2.4-15.6c0.1-0.6,0.2-1.5,0.4-2.8c0.4-2.2,0.7-4,0.9-5.1
		v-0.2c-0.6,0-1.5,0.1-2.6,0.2c-0.6,0.1-1.1,0.2-1.5,0.2c-2.2,0.3-4.8,0.7-7.5,1.3c-1.6,0.3-2.7,0.5-3.5,0.7c-0.2,0-0.6,0.1-1,0.2
		c-0.5,0.1-0.8,0.2-1,0.2l-0.9,0.2c0,0-0.2,0.1-0.4,0.2c0.3,0.1,0.3,0.3,0.2,0.4c-0.4,0.3-0.7,0.2-1.1-0.2c-0.1-0.1-0.1-0.1-0.1-0.2
		c-0.3-0.4-0.1-0.7,0.4-1c0.1,0,0.1,0,0.1,0c0.5-0.2,1.2-0.4,2.1-0.6c0.9-0.3,1.6-0.5,2.2-0.6c4.5-1.1,9.3-1.9,14.5-2.3
		c0-0.2,0.1-0.5,0.1-1c0.1-0.8,0.2-1.4,0.3-1.8c0-0.3,0-0.6,0.1-1.1c0.1-1.3,0.2-2.2,0.4-2.8c0.1-0.2,0.3-0.2,0.6-0.1
		c0.1,0.1,0.2,0.1,0.2,0.2c0.1,0.5,0,1.9-0.1,4c0,0.2,0,0.3,0,0.4c0,0.2-0.1,0.6-0.1,1c0,0.5-0.1,0.8-0.1,1h0.7
		c3.7-0.2,6.5-0.3,8.4-0.3c1,0,2.4,0,4.2,0.2c0.5,0,1.2,0,2.2,0.2C263.1,35.4,263.8,35.6,264.2,35.8z"/>
	<path class="st0" d="M265.2,56.8c0.2-0.3,0.5-0.3,0.8,0c0.2,0.2,0.2,0.4,0,0.6c-0.5,0.8-1.7,2-3.6,3.7c-3.4,3.1-5.9,4.4-7.6,4.1
		c-1.1-0.3-2.1-0.9-2.8-1.9c-1.2-1.5-1.5-4-0.9-7.6c0-0.2,0.1-0.4,0.1-0.7c0.5-3,1.2-6,2-8.8c0.9-3,1.8-5.8,2.9-8.4
		c0.2-0.5,0.5-1.1,0.9-2s0.7-1.6,0.9-2c0.8-1.6,1.5-2.7,2-3.4c1.1-1.2,2.1-1.8,3-1.7c0.9,0.2,1.2,0.9,1.1,2.2c0,0.1,0,0.2,0,0.3
		c0,0.2,0,0.4,0,0.4c-0.2,2.6-0.9,5.1-1.9,7.7s-2.3,5-3.7,7.2c-1.9,2.8-3.6,5-5,6.6c-0.1,0.3-0.1,0.8-0.2,1.5
		c-0.1,0.7-0.2,1.1-0.2,1.5c-0.4,2.7-0.3,4.6,0.3,5.7c0.2,0.5,0.5,0.9,0.9,1.2c0.8,0.7,1.6,1,2.5,0.7c0.9-0.3,1.9-0.9,3.2-1.9
		C262,60.3,263.8,58.6,265.2,56.8z M259.9,33c-2.2,4.7-4,9.7-5.4,15.2c-0.1,0.3-0.2,0.8-0.3,1.5c-0.2,0.7-0.3,1.2-0.3,1.5
		c0.9-1.1,2.1-2.9,3.7-5.2c1.6-2.5,2.9-5,3.8-7.5c1-2.7,1.5-5,1.6-7c0-0.1,0-0.3,0-0.6c0.1-0.6,0.1-1,0-1.2c-0.1-0.2-0.3-0.2-0.5,0
		c-0.3,0.2-0.5,0.4-0.6,0.5C261.3,30.6,260.6,31.6,259.9,33z"/>
	<path class="st0" d="M279.3,56.7c0.3-0.2,0.6-0.2,0.9,0c0,0.1,0,0.2-0.1,0.3c-2.4,1.9-5.1,3.5-8.2,4.8c-1,0.4-1.9,0.7-2.7,0.9
		c-2.5,0.6-4.1,0.1-4.6-1.5c-0.2-0.5-0.2-1-0.2-1.5c0.1-1.4,0.6-2.7,1.5-3.9c1-1.4,2.1-2,3.1-1.7c0.5,0.2,0.9,0.6,0.9,1
		c0,0.3-0.3,0.9-0.9,1.6c-0.9,1-1.9,1.7-3,2.3c-0.1,1.5,0.3,2.3,1.2,2.5c2.2,0.4,5.7-0.9,10.6-4C278.3,57.4,278.8,57,279.3,56.7z
		 M267.1,55.9c-0.5,0.8-0.9,1.6-1.1,2.5c1-0.6,1.7-1.2,2.3-2c0.5-0.8,0.7-1.4,0.4-1.6C268.4,54.5,267.8,54.9,267.1,55.9
		C267.1,55.8,267.1,55.9,267.1,55.9z"/>
	<path class="st0" d="M292.1,56.7c0.2-0.1,0.5-0.1,0.8,0.2c0.1,0.2,0.1,0.3,0,0.4c-1.6,0.9-3.2,1.3-4.7,1c-1.5-0.3-2.6-1-3.2-2
		c-0.1-0.2-0.2-0.5-0.3-0.9s-0.2-0.7-0.3-0.8h-0.1l-0.1,0.1c-0.2,0.2-0.4,0.4-0.6,0.8c-1.9,2.6-3.2,5.5-4.1,8.7
		c-0.1,0.4-0.4,0.5-1,0.3c-0.4-0.1-0.6-0.3-0.5-0.5c0.6-2.9,0.9-4.7,1-5.4c0.1-0.6,0.2-1.5,0.3-2.6c0-0.1,0-0.3,0-0.6
		c0-0.3,0-0.5,0-0.7c0-0.6,0.2-1,0.4-1.3c0.1-0.2,0.4-0.2,0.7,0c0.1,0.1,0.1,0.1,0.1,0.2c0.2,0.5,0.3,1.4,0.2,2.6c0,0.1,0,0.3,0,0.5
		c0,0.3,0,0.4,0,0.5c0.5-1,1.1-1.8,1.8-2.6c0.6-0.7,1.2-1,1.9-1c0.7,0,1.3,0.4,1.6,1.1c0.1,0.1,0.2,0.4,0.3,0.7
		c0.2,0.4,0.3,0.7,0.4,0.9c0.3,0.4,0.8,0.8,1.3,1C289.1,57.6,290.5,57.5,292.1,56.7z"/>
</g>
</svg>
