<?xml version="1.0" encoding="utf-8"?>
<!-- Generator: Adobe Illustrator 25.0.0, SVG Export Plug-In . SVG Version: 6.00 Build 0)  -->
<svg version="1.1" id="Layer_1" xmlns="http://www.w3.org/2000/svg" xmlns:xlink="http://www.w3.org/1999/xlink" x="0px" y="0px"
	 viewBox="0 0 300 100" style="enable-background:new 0 0 300 100;" xml:space="preserve">
<style type="text/css">
	.st0{fill:#4F959D;}
</style>
<g>
	<path class="st0" d="M67.03,25.76c0.06,0.36-0.11,0.57-0.54,0.64c-0.07,0.03-0.11,0.05-0.15,0.05h-1.37c-0.1,0-0.54,0.07-1.32,0.2
		c-0.42-0.03-0.7-0.13-0.83-0.29c-0.03-0.06-0.05-0.18-0.05-0.34c-0.39-0.06-0.96-0.15-1.71-0.24c-0.78-0.1-1.34-0.16-1.66-0.2
		c-4.08-0.42-6.16-0.65-6.26-0.68c-4.99-0.42-9.25-0.67-12.77-0.73c0.2,2.84,0.13,6.1-0.2,9.78c-0.29,3.1-1.13,10.4-2.5,21.92
		c-0.16,1.24-0.39,3.07-0.68,5.48c-0.29,2.45-0.51,4.27-0.64,5.48c-0.1,0.62-0.2,1.55-0.29,2.79c-0.13,1.24-0.23,2.17-0.29,2.79
		c-0.03,0.29-0.1,0.75-0.2,1.37c-0.1,0.62-0.16,1.06-0.2,1.32c0,0.1-0.02,0.26-0.05,0.49c-0.07,0.42-0.11,0.73-0.15,0.93
		c-0.07,0.13-0.17,0.34-0.32,0.64c-0.15,0.29-0.24,0.49-0.27,0.59c-0.16,0.33-0.51,0.36-1.03,0.1c-0.16-0.13-0.26-0.26-0.29-0.39
		c-0.16-1.04-0.25-1.58-0.25-1.61c0-0.36,0.05-0.86,0.15-1.52c0-0.13,0.01-0.25,0.02-0.37c0.02-0.11,0.03-0.23,0.05-0.34
		c0.02-0.11,0.03-0.23,0.05-0.34c0.02-0.11,0.03-0.23,0.05-0.34c0.02-0.12,0.03-0.23,0.05-0.34c0.02-0.12,0.03-0.23,0.05-0.34
		c0.02-0.11,0.03-0.23,0.05-0.34c0.02-0.11,0.02-0.23,0.02-0.34s0.02-0.22,0.05-0.32c0.06-0.69,0.2-1.7,0.39-3.03
		c0.2-1.37,0.33-2.4,0.39-3.08c0.33-2.41,0.8-6.03,1.42-10.86c0.59-4.86,1.04-8.5,1.37-10.91c0.95-7.34,1.45-11.55,1.52-12.62
		c0.2-2.38,0.28-4.57,0.24-6.56c-0.03,0-0.15-0.02-0.34-0.05h-8.17c-7.4,0.13-14.99,0.68-22.75,1.66c-0.36-0.03-0.57-0.13-0.64-0.29
		c-0.03-0.2,0.06-0.31,0.29-0.34c4.99-0.78,9.26-1.32,12.82-1.61c5.8-0.49,11.9-0.73,18.3-0.73c0-0.16,0.05-0.39,0.15-0.68
		c0.1-0.33,0.16-0.57,0.2-0.73c0.1-0.33,0.41-0.39,0.93-0.2c0.2,0.1,0.33,0.21,0.39,0.34c0.1,0.62,0.15,1.06,0.15,1.32
		c0.29,0,0.75,0.02,1.37,0.05c0.62,0.03,1.08,0.05,1.37,0.05c3.26,0.07,7.09,0.31,11.5,0.73c5.19,0.49,9.05,0.95,11.59,1.37
		C66.57,25.19,66.9,25.43,67.03,25.76z"/>
	<path class="st0" d="M49.22,55.75c0.06-0.26,0.39-0.34,0.98-0.25c0.23,0.07,0.34,0.15,0.34,0.25c-0.39,2.15-0.59,3.77-0.59,4.84
		c0.06,2.06,0.64,3.13,1.71,3.23c0.75-0.03,1.45-0.18,2.1-0.44c0.39-0.16,0.96-0.42,1.71-0.78c0.39-0.2,0.68-0.33,0.88-0.39
		c3.72-1.76,7.09-3.6,10.13-5.53c0.26-0.13,0.55-0.1,0.88,0.1c0.13,0.13,0.05,0.34-0.24,0.64c-1.83,1.3-5.51,3.38-11.06,6.21
		c-0.16,0.07-0.29,0.13-0.39,0.2c-1.83,0.85-3.1,1.3-3.82,1.37c-0.55,0-1.04-0.1-1.47-0.29c-1.21-0.55-1.81-1.96-1.81-4.21
		c0-0.16,0-0.29,0-0.39C48.65,58.8,48.86,57.28,49.22,55.75z M50.4,51.98c0.39-0.1,0.67-0.06,0.83,0.1c0.13,0.16,0.2,0.46,0.2,0.88
		c0,0.13-0.05,0.24-0.15,0.34c-0.13,0.1-0.33,0.15-0.59,0.15c-0.33-0.03-0.54-0.13-0.64-0.29c-0.03,0-0.05-0.06-0.05-0.2l0.05-0.24
		C50.09,52.42,50.2,52.17,50.4,51.98z"/>
	<path class="st0" d="M80.38,56.73c0.29-0.2,0.59-0.2,0.88,0c0.03,0.13,0,0.24-0.1,0.34c-2.41,1.92-5.14,3.51-8.17,4.75
		c-0.98,0.39-1.88,0.7-2.69,0.93c-2.54,0.62-4.09,0.13-4.65-1.47c-0.16-0.46-0.23-0.95-0.2-1.47c0.1-1.37,0.59-2.67,1.47-3.91
		c1.04-1.43,2.07-1.99,3.08-1.66c0.55,0.23,0.85,0.57,0.88,1.03c-0.03,0.33-0.34,0.86-0.93,1.61c-0.88,0.95-1.89,1.73-3.03,2.35
		c-0.07,1.5,0.33,2.35,1.17,2.54c2.18,0.42,5.72-0.9,10.62-3.96C79.37,57.38,79.93,57.02,80.38,56.73z M68.2,55.89
		c-0.52,0.75-0.9,1.57-1.13,2.45c0.98-0.59,1.74-1.25,2.3-2.01c0.55-0.85,0.7-1.39,0.44-1.61c-0.36-0.2-0.88,0.16-1.57,1.08
		C68.22,55.83,68.2,55.86,68.2,55.89z"/>
	<path class="st0" d="M93.2,56.73c0.23-0.13,0.49-0.08,0.78,0.15c0.13,0.16,0.15,0.31,0.05,0.44c-1.63,0.91-3.2,1.26-4.7,1.03
		c-1.5-0.29-2.56-0.98-3.18-2.05c-0.1-0.2-0.21-0.49-0.34-0.88c-0.13-0.39-0.23-0.67-0.29-0.83h-0.1l-0.15,0.1
		c-0.16,0.16-0.37,0.42-0.64,0.78c-1.86,2.58-3.21,5.46-4.06,8.66c-0.07,0.39-0.39,0.51-0.98,0.34c-0.39-0.13-0.57-0.31-0.54-0.54
		c0.59-2.9,0.93-4.7,1.03-5.38c0.1-0.62,0.2-1.5,0.29-2.64c0-0.13,0-0.34,0-0.64c0.03-0.33,0.05-0.55,0.05-0.68
		c0.03-0.59,0.16-1.03,0.39-1.32c0.13-0.23,0.36-0.24,0.68-0.05c0.07,0.07,0.1,0.11,0.1,0.15c0.2,0.52,0.28,1.4,0.24,2.64
		c0,0.1-0.02,0.28-0.05,0.54c-0.03,0.26-0.05,0.44-0.05,0.54c0.52-0.95,1.11-1.83,1.76-2.64c0.62-0.65,1.26-0.99,1.91-1.03
		c0.72,0.03,1.26,0.41,1.61,1.13c0.1,0.13,0.2,0.37,0.29,0.73c0.16,0.42,0.31,0.73,0.44,0.93c0.33,0.42,0.77,0.77,1.32,1.03
		C90.23,57.64,91.6,57.47,93.2,56.73z"/>
	<path class="st0" d="M117.95,56.87c0.1,0.2-0.03,0.41-0.39,0.64c-2.22,1.47-4.39,2.67-6.51,3.62c-2.61,1.17-4.81,1.34-6.6,0.49
		c-1.27-0.65-2.09-1.78-2.45-3.38c-0.13-0.55-0.29-0.99-0.49-1.32c-0.2-0.2-0.42-0.21-0.68-0.05c-0.03,0-0.08,0.03-0.15,0.1
		c-0.07,0.07-0.11,0.1-0.15,0.1c-0.16,0.16-0.41,0.39-0.73,0.68c-0.33,0.33-0.57,0.57-0.73,0.73c-0.65,0.59-1.65,1.48-2.98,2.69
		c-1.37,1.21-2.38,2.12-3.03,2.74c-0.29,0.23-0.68,0.23-1.17,0c-0.26-0.16-0.37-0.34-0.34-0.54c0.07-0.39,0.2-0.93,0.39-1.61
		c0.13-0.42,0.21-0.73,0.24-0.93c0.07-0.29,0.16-0.7,0.29-1.22c0.13-0.55,0.23-0.96,0.29-1.22c0.13-0.55,0.34-1.4,0.64-2.54
		c0.29-1.14,0.51-1.97,0.64-2.5c0.03-0.33,0.29-0.42,0.78-0.29c0.29,0.13,0.44,0.29,0.44,0.49l-1.08,5.09
		c-0.07,0.26-0.16,0.67-0.29,1.22c-0.1,0.59-0.18,1.01-0.24,1.27v0.2l4.84-4.45c0.91-0.85,1.5-1.34,1.76-1.47
		c0.42-0.16,0.85-0.21,1.27-0.15c0.85,0.16,1.4,0.75,1.66,1.76c0.49,2.15,1.26,3.39,2.3,3.72c1.21,0.33,2.79,0.16,4.75-0.49
		c0.33-0.1,0.62-0.2,0.88-0.29c0.62-0.29,2.4-1.25,5.33-2.89c0.16-0.1,0.29-0.16,0.39-0.2C117.29,56.61,117.66,56.61,117.95,56.87z"
		/>
	<path class="st0" d="M135.03,56.77c0.16-0.16,0.44-0.15,0.83,0.05c0.13,0.13,0.18,0.26,0.15,0.39c-1.01,1.17-2.17,2.17-3.47,2.98
		c-3.2,2.12-5.76,2.46-7.68,1.03c-1.11-0.91-1.68-2.28-1.71-4.11c-0.56,0.88-1.45,2.04-2.69,3.47c-1.17,1.27-1.86,1.99-2.05,2.15
		c-0.1,0.07-0.18,0.13-0.24,0.2c-1.01,0.78-1.94,0.93-2.79,0.44c-1.34-0.78-1.5-2.14-0.49-4.06c0.26-0.42,0.52-0.81,0.78-1.17
		c1.24-1.47,2.93-2.54,5.09-3.23c0.78-0.23,1.52-0.2,2.2,0.1c0.16-0.29,0.37-0.72,0.64-1.27c0.16-0.33,0.52-0.37,1.08-0.15
		c0.33,0.2,0.49,0.39,0.49,0.59c-0.42,2.22-0.47,3.82-0.15,4.79c0.26,0.91,0.88,1.52,1.86,1.81c0.16,0.03,0.29,0.07,0.39,0.1
		c1.57,0.2,3.51-0.59,5.82-2.35C133.85,57.95,134.5,57.36,135.03,56.77z M117.56,61.81c2.02-2.02,3.67-4.03,4.94-6.02l-0.1-0.05
		c-0.13-0.16-0.47-0.16-1.03,0c-0.65,0.23-1.39,0.62-2.2,1.17c-1.3,0.95-2.33,2.07-3.08,3.38c-0.46,0.91-0.52,1.65-0.2,2.2
		c0.23,0.2,0.49,0.21,0.78,0.05c0.13-0.06,0.31-0.21,0.54-0.44C117.38,61.98,117.5,61.88,117.56,61.81z"/>
	<path class="st0" d="M159.88,56.87c0.1,0.2-0.03,0.41-0.39,0.64c-2.22,1.47-4.39,2.67-6.51,3.62c-2.61,1.17-4.81,1.34-6.6,0.49
		c-1.27-0.65-2.09-1.78-2.45-3.38c-0.13-0.55-0.29-0.99-0.49-1.32c-0.2-0.2-0.42-0.21-0.68-0.05c-0.03,0-0.08,0.03-0.15,0.1
		c-0.07,0.07-0.11,0.1-0.15,0.1c-0.16,0.16-0.41,0.39-0.73,0.68c-0.33,0.33-0.57,0.57-0.73,0.73c-0.65,0.59-1.65,1.48-2.98,2.69
		c-1.37,1.21-2.38,2.12-3.03,2.74c-0.29,0.23-0.68,0.23-1.17,0c-0.26-0.16-0.37-0.34-0.34-0.54c0.07-0.39,0.2-0.93,0.39-1.61
		c0.13-0.42,0.21-0.73,0.24-0.93c0.07-0.29,0.16-0.7,0.29-1.22c0.13-0.55,0.23-0.96,0.29-1.22c0.13-0.55,0.34-1.4,0.64-2.54
		c0.29-1.14,0.51-1.97,0.64-2.5c0.03-0.33,0.29-0.42,0.78-0.29c0.29,0.13,0.44,0.29,0.44,0.49l-1.08,5.09
		c-0.07,0.26-0.16,0.67-0.29,1.22c-0.1,0.59-0.18,1.01-0.24,1.27v0.2l4.84-4.45c0.91-0.85,1.5-1.34,1.76-1.47
		c0.42-0.16,0.85-0.21,1.27-0.15c0.85,0.16,1.4,0.75,1.66,1.76c0.49,2.15,1.26,3.39,2.3,3.72c1.21,0.33,2.79,0.16,4.75-0.49
		c0.33-0.1,0.62-0.2,0.88-0.29c0.62-0.29,2.4-1.25,5.33-2.89c0.16-0.1,0.29-0.16,0.39-0.2C159.21,56.61,159.58,56.61,159.88,56.87z"
		/>
	<path class="st0" d="M205.86,45.03c-0.13,0.23-0.38,0.26-0.73,0.1c-0.16-0.13-0.23-0.28-0.2-0.44c0.46-0.81,0.98-1.89,1.57-3.23
		c1.14-2.61,1.99-5.01,2.54-7.19c0.65-2.64,0.93-4.68,0.83-6.11c-0.16-2.18-0.9-3.64-2.2-4.35c-0.85-0.46-2.02-0.55-3.52-0.29
		c-1.24,0.23-2.3,0.51-3.18,0.83c-3.2,1.27-6.72,3.98-10.57,8.12c-0.07,0.07-0.12,0.11-0.15,0.15c-3.16,3.49-5.87,7.16-8.12,11.01
		c-2.35,4.14-4.17,8.28-5.48,12.43c-1.44,4.63-2.01,8.25-1.71,10.86c0.1,0.82,0.26,1.58,0.49,2.3c0.62,1.96,1.79,3.52,3.52,4.7
		c0.91,0.59,1.79,1.03,2.64,1.32c0.26,0.07,0.72,0.16,1.37,0.29c0.1,0,0.23,0.03,0.39,0.1c0.2,0.03,0.33,0.05,0.39,0.05
		c0.16,0.03,0.36,0.07,0.59,0.1c3.75,0.26,8.38-0.95,13.89-3.62c5.38-2.58,10.08-5.43,14.09-8.56c2.32-1.79,4.97-4.04,7.97-6.75
		c0.36-0.29,0.77-0.36,1.22-0.2c0.2,0.16,0.23,0.33,0.1,0.49c-1.01,1.24-2.98,3.08-5.92,5.53c-6.82,5.67-13.57,9.78-20.25,12.33
		c-4.7,1.76-8.51,2.53-11.45,2.3c-1.27-0.13-2.48-0.39-3.62-0.78c-2.35-0.85-4.21-2.17-5.58-3.96c-1.37-1.83-2.09-3.99-2.15-6.51
		c-0.03-2.09,0.28-4.42,0.93-7c0.49-1.99,1.25-4.27,2.3-6.85c1.83-4.5,4.11-8.72,6.85-12.67c2.84-4.08,6.03-7.68,9.59-10.81
		c4.37-3.85,8.58-5.87,12.62-6.07c2.58-0.06,4.35,0.82,5.33,2.64c0.68,1.37,0.91,3.18,0.68,5.43c-0.26,2.15-0.86,4.57-1.81,7.24
		C208.23,40.48,207.13,42.85,205.86,45.03z"/>
	<path class="st0" d="M242.55,56.73c0.26,0.16,0.36,0.33,0.29,0.49c-1.01,1.14-2.23,2.28-3.67,3.43c-1.21,0.98-2.35,1.76-3.42,2.35
		c-1.37,0.75-2.64,1.08-3.82,0.98c-1.89-0.2-3.15-1.06-3.77-2.59c-0.2-0.55-0.29-1.12-0.29-1.71c-1.53,1.79-2.97,3.11-4.3,3.96
		c-0.95,0.59-1.86,0.52-2.74-0.2c-0.26-0.23-0.47-0.46-0.64-0.68c-0.49-0.85-0.62-2.01-0.39-3.47c0.33-1.92,0.77-3.39,1.32-4.4
		c0.16-0.29,0.49-0.33,0.98-0.1c0.23,0.13,0.34,0.26,0.34,0.39c-0.03,0.2-0.08,0.36-0.15,0.49c-0.49,1.89-0.78,3.34-0.88,4.35
		c-0.07,0.78-0.03,1.42,0.1,1.91c0.16,0.55,0.37,0.87,0.64,0.93c0.36-0.03,0.96-0.42,1.81-1.17c0.62-0.52,1.19-1.06,1.71-1.61
		c1.17-1.24,2.15-2.46,2.94-3.67c0.23-0.33,0.65-0.37,1.27-0.15c0.36,0.16,0.52,0.38,0.49,0.64c-0.59,2.06-0.68,3.54-0.29,4.45
		c0.03,0.1,0.06,0.18,0.1,0.24c0.78,1.5,2.38,1.65,4.79,0.44c0.33-0.16,0.6-0.33,0.83-0.49c1.34-0.85,3.33-2.45,5.97-4.79
		C241.96,56.56,242.22,56.56,242.55,56.73z"/>
	<path class="st0" d="M264.22,35.79c0.16,0.07,0.2,0.2,0.1,0.39c-0.07,0.07-0.1,0.11-0.1,0.15c-0.29,0.07-0.96,0.08-2.01,0.05
		c-0.23,0-0.57-0.02-1.03-0.05c-0.49-0.06-0.83-0.1-1.03-0.1c-0.95-0.03-2.36-0.05-4.26-0.05c-3.52,0-6.65,0.1-9.39,0.29
		c-0.03,0.13-0.05,0.33-0.05,0.59c-0.03,0.29-0.07,0.51-0.1,0.64c-0.29,1.99-0.78,5.01-1.47,9.05c-0.52,2.97-0.88,5.19-1.08,6.65
		c-0.52,3.62-0.85,6.25-0.98,7.88l-0.2,3.96v1.96c-0.03,1.08-0.08,1.74-0.15,2.01c-0.13,0.29-0.41,0.33-0.83,0.1
		c-0.13-0.1-0.23-0.18-0.29-0.24c-0.16-0.42-0.23-1.21-0.2-2.35v-2.15c0-1.47,0.07-2.93,0.2-4.4c0.33-3.46,1.14-8.66,2.45-15.6
		c0.1-0.62,0.25-1.55,0.44-2.79c0.42-2.25,0.72-3.95,0.88-5.09v-0.15c-0.62,0.03-1.48,0.11-2.59,0.24c-0.65,0.1-1.14,0.16-1.47,0.2
		c-2.25,0.26-4.75,0.68-7.48,1.27c-1.57,0.29-2.74,0.54-3.52,0.73c-0.23,0.03-0.55,0.11-0.98,0.24c-0.46,0.13-0.78,0.21-0.98,0.24
		l-0.88,0.24c-0.03,0-0.16,0.07-0.39,0.2c0.26,0.13,0.34,0.28,0.25,0.44c-0.36,0.29-0.73,0.24-1.12-0.15
		c-0.07-0.06-0.11-0.11-0.15-0.15c-0.26-0.39-0.11-0.72,0.44-0.98c0.07-0.03,0.12-0.05,0.15-0.05c0.49-0.2,1.21-0.39,2.15-0.59
		c0.88-0.26,1.63-0.46,2.25-0.59c4.47-1.08,9.3-1.86,14.48-2.35c0.03-0.23,0.08-0.55,0.15-0.98c0.13-0.81,0.23-1.42,0.29-1.81
		c0-0.26,0.03-0.64,0.1-1.13c0.1-1.3,0.23-2.25,0.39-2.84c0.06-0.2,0.26-0.24,0.59-0.15c0.13,0.07,0.21,0.15,0.24,0.24
		c0.07,0.52,0.02,1.86-0.15,4.01c0,0.16,0,0.31,0,0.44c-0.03,0.23-0.08,0.57-0.15,1.03c-0.03,0.49-0.07,0.83-0.1,1.03h0.73
		c3.72-0.2,6.51-0.29,8.37-0.29c0.98,0,2.38,0.05,4.21,0.15c0.49,0,1.22,0.05,2.2,0.15C263.08,35.44,263.77,35.59,264.22,35.79z"/>
	<path class="st0" d="M265.25,56.77c0.23-0.26,0.51-0.28,0.83-0.05c0.16,0.2,0.18,0.41,0.05,0.64c-0.55,0.82-1.74,2.05-3.57,3.72
		c-3.39,3.07-5.92,4.42-7.58,4.06c-1.14-0.29-2.07-0.93-2.79-1.91c-1.17-1.5-1.48-4.03-0.93-7.58c0.03-0.2,0.08-0.42,0.15-0.68
		c0.52-3.03,1.17-5.95,1.96-8.76c0.85-2.97,1.83-5.77,2.93-8.41c0.2-0.46,0.49-1.14,0.88-2.05c0.39-0.91,0.68-1.58,0.88-2.01
		c0.81-1.57,1.48-2.69,2.01-3.38c1.08-1.24,2.07-1.79,2.98-1.66c0.85,0.16,1.22,0.91,1.13,2.25c-0.03,0.07-0.05,0.16-0.05,0.29
		c-0.03,0.23-0.05,0.38-0.05,0.44c-0.23,2.58-0.87,5.15-1.91,7.73c-1.04,2.58-2.28,4.97-3.72,7.19c-1.93,2.81-3.59,5.01-4.99,6.6
		c-0.07,0.29-0.15,0.78-0.24,1.47c-0.1,0.65-0.16,1.14-0.2,1.47c-0.36,2.68-0.26,4.58,0.29,5.72c0.23,0.49,0.52,0.9,0.88,1.22
		c0.75,0.72,1.58,0.95,2.49,0.68c0.85-0.29,1.92-0.93,3.23-1.91C262.04,60.26,263.81,58.57,265.25,56.77z M259.92,33
		c-2.19,4.66-3.98,9.73-5.38,15.21c-0.07,0.33-0.16,0.82-0.29,1.47c-0.16,0.68-0.28,1.19-0.34,1.52c0.88-1.14,2.1-2.87,3.67-5.19
		c1.63-2.54,2.9-5.04,3.82-7.48c0.95-2.71,1.48-5.05,1.61-7.04c0-0.13,0-0.34,0-0.64c0.07-0.59,0.07-0.99,0-1.22
		c-0.1-0.2-0.28-0.21-0.54-0.05c-0.29,0.2-0.51,0.36-0.64,0.49C261.27,30.62,260.63,31.6,259.92,33z"/>
	<path class="st0" d="M279.29,56.73c0.29-0.2,0.59-0.2,0.88,0c0.03,0.13,0,0.24-0.1,0.34c-2.41,1.92-5.14,3.51-8.17,4.75
		c-0.98,0.39-1.88,0.7-2.69,0.93c-2.54,0.62-4.09,0.13-4.65-1.47c-0.16-0.46-0.23-0.95-0.2-1.47c0.1-1.37,0.59-2.67,1.47-3.91
		c1.04-1.43,2.07-1.99,3.08-1.66c0.55,0.23,0.85,0.57,0.88,1.03c-0.03,0.33-0.34,0.86-0.93,1.61c-0.88,0.95-1.89,1.73-3.03,2.35
		c-0.07,1.5,0.33,2.35,1.17,2.54c2.18,0.42,5.72-0.9,10.62-3.96C278.28,57.38,278.83,57.02,279.29,56.73z M267.11,55.89
		c-0.52,0.75-0.9,1.57-1.12,2.45c0.98-0.59,1.74-1.25,2.3-2.01c0.55-0.85,0.7-1.39,0.44-1.61c-0.36-0.2-0.88,0.16-1.57,1.08
		C267.12,55.83,267.11,55.86,267.11,55.89z"/>
	<path class="st0" d="M292.11,56.73c0.23-0.13,0.49-0.08,0.78,0.15c0.13,0.16,0.15,0.31,0.05,0.44c-1.63,0.91-3.2,1.26-4.7,1.03
		c-1.5-0.29-2.56-0.98-3.18-2.05c-0.1-0.2-0.21-0.49-0.34-0.88c-0.13-0.39-0.23-0.67-0.29-0.83h-0.1l-0.15,0.1
		c-0.16,0.16-0.38,0.42-0.64,0.78c-1.86,2.58-3.21,5.46-4.06,8.66c-0.07,0.39-0.39,0.51-0.98,0.34c-0.39-0.13-0.57-0.31-0.54-0.54
		c0.59-2.9,0.93-4.7,1.03-5.38c0.1-0.62,0.2-1.5,0.29-2.64c0-0.13,0-0.34,0-0.64c0.03-0.33,0.05-0.55,0.05-0.68
		c0.03-0.59,0.16-1.03,0.39-1.32c0.13-0.23,0.36-0.24,0.69-0.05c0.06,0.07,0.1,0.11,0.1,0.15c0.2,0.52,0.28,1.4,0.24,2.64
		c0,0.1-0.02,0.28-0.05,0.54c-0.03,0.26-0.05,0.44-0.05,0.54c0.52-0.95,1.11-1.83,1.76-2.64c0.62-0.65,1.25-0.99,1.91-1.03
		c0.72,0.03,1.26,0.41,1.61,1.13c0.1,0.13,0.2,0.37,0.29,0.73c0.16,0.42,0.31,0.73,0.44,0.93c0.33,0.42,0.77,0.77,1.32,1.03
		C289.14,57.64,290.51,57.47,292.11,56.73z"/>
</g>
</svg>
