<?xml version="1.0" encoding="utf-8"?>
<!-- Generator: Adobe Illustrator 25.0.0, SVG Export Plug-In . SVG Version: 6.00 Build 0)  -->
<svg version="1.1"
	 id="vespa" xmlns:cc="http://creativecommons.org/ns#" xmlns:dc="http://purl.org/dc/elements/1.1/" xmlns:rdf="http://www.w3.org/1999/02/22-rdf-syntax-ns#" xmlns:svg="http://www.w3.org/2000/svg"
	 xmlns="http://www.w3.org/2000/svg" xmlns:xlink="http://www.w3.org/1999/xlink" x="0px" y="0px" viewBox="0 0 595.3 544"
	 style="enable-background:new 0 0 595.3 544;" xml:space="preserve">
<style type="text/css">
	.st0{fill:#E4EAED;}
	.st1{fill:#FFFFFF;}
	.st2{fill:#86B766;}
	.st3{fill:#5C9191;}
	.st4{fill:#203547;}
	.st5{fill:#122130;}
	.st6{fill:#CED8DD;}
	.st7{fill:#B2BBC1;}
	.st8{opacity:0.2;fill:#888F91;enable-background:new    ;}
	.st9{fill:#E7EFF2;}
	.st10{fill:#DAE6EA;}
	.st11{fill:#666E70;}
	.st12{fill:#535A5B;}
	.st13{fill:#8E8E8E;}
	.st14{fill:#8C5218;}
	.st15{fill:#6B3E15;}
	.st16{fill:#F6E68F;}
	.st17{fill:#824C20;}
	.st18{fill:#768689;}
	.st19{opacity:0.82;fill:#122130;}
	.st20{fill:#FFDE55;}
	.st21{fill:#FCEBA2;}
</style>
<g id="front.cloud" transform="translate(-115.99 -582.37)">
	<g id="g4074" transform="translate(-399.01 459.27)">
		<path id="path3995" class="st0" d="M998.1,224.7c-19.2,0-35.8,10.8-44.2,26.7c-8.4-8.6-20-13.9-32.9-13.9
			c-14.5,0-27.4,6.7-35.9,17.2c-4.4-3.6-10.1-5.8-16.3-5.8c-14.2,0-25.7,11.5-25.7,25.7c0,14.2,11.5,25.7,25.7,25.7
			c3,0,5.9-0.5,8.6-1.5c6.3,18,23.4,31,43.5,31c7,0,13.6-1.5,19.5-4.3c4.6,9.3,14.1,15.7,25.1,15.7c11.6,0,21.5-7,25.8-17.1
			c2.2,0.3,4.5,0.4,6.7,0.4c10.3,0,19.9-3.1,27.9-8.5c5.1,6.6,13.1,10.8,22,10.8c15.4,0,28-12.5,28-28c0-15.4-12.5-28-28-28h-0.2
			C1045.9,245,1024.4,224.7,998.1,224.7z"/>
		<path id="path4010" class="st1" d="M998.1,232.2c-16.4,0-30.5,9.2-37.6,22.7c-1.1,2.1-3.2,3.6-5.5,3.9c-2.4,0.3-4.7-0.5-6.4-2.2
			c-7-7.2-16.8-11.6-27.6-11.6c-12.2,0-23,5.6-30.1,14.4c-1.3,1.5-3.1,2.5-5.1,2.7c-2,0.2-4-0.4-5.5-1.6c-3.2-2.6-7.1-4.1-11.5-4.1
			c-10.1,0-18.2,8.1-18.2,18.2c0,10.1,8.1,18.2,18.2,18.2c2.2,0,4.2-0.4,6.1-1c1.9-0.7,3.9-0.6,5.7,0.3c1.8,0.9,3.2,2.4,3.8,4.3
			c5.2,15.1,19.5,25.9,36.5,25.9c5.9,0,11.4-1.3,16.3-3.6c3.7-1.7,8.1-0.2,9.9,3.5c3.3,6.8,10.3,11.5,18.4,11.5
			c8.5,0,15.8-5.2,18.9-12.5c1.3-3.1,4.5-5,7.9-4.5c1.9,0.2,3.8,0.4,5.7,0.4c8.8,0,16.9-2.7,23.7-7.2c3.3-2.2,7.7-1.5,10.1,1.6
			c3.8,4.8,9.5,7.9,16.1,7.9c11.4,0,20.5-9.1,20.5-20.5c0-11.4-9.1-20.5-20.5-20.5h-0.1c-3.9,0-7.2-3-7.5-6.9
			C1038.8,249.4,1020.5,232.2,998.1,232.2L998.1,232.2z"/>
		<path id="path4020" class="st0" d="M877.2,296.9c0,0-3.6-20.8,2.6-24.2c-9.6,3.8-7.9,26.6-7.9,26.6L877.2,296.9z"/>
		<path id="path4022" class="st0" d="M1026.9,315c0,0-3.6-20.8,2.6-24.2c-9.6,3.8-7.9,26.6-7.9,26.6L1026.9,315z"/>
		<path id="path4024" class="st0" d="M955.3,252.6c0,0,16.9,11.5,14.6,20.3c5.2-9.8-11.5-24.4-11.5-24.4L955.3,252.6L955.3,252.6z"
			/>
		<path id="path4005" class="st0" d="M965.9,286.7c-13.1,0-23.7,10.6-23.7,23.7c0,1.9,0.2,3.8,0.7,5.5c0-0.1,0-0.3,0-0.4
			c0-13.1,10.6-23.7,23.7-23.7c11.2,0,20.5,7.7,23,18.1C989.3,297.1,978.8,286.7,965.9,286.7z"/>
	</g>
</g>
<g id="vespa_1_">
	<path class="st2" d="M315.7,389.2c4-12.8,7.2-27.2,8.8-44c2.4-28-132.8-20.8-198.4-20.8S86.9,342.8,86.9,386s52.8,78.4,118.4,78.4
		c21.6,0,40.8-4,56.8-12c3.2,15.2,23.2,19.2,42.4,19.2c20.8,0-2.4-16-2.4-34.4C302.9,426,311.7,404.4,315.7,389.2z"/>
	<g>
		<path class="st3" d="M298.1,390.8c4.8-12.8,7.2-27.2,8.8-44c2.4-28-116-22.4-181.6-22.4S86.1,342.8,86.1,386s52.8,78.4,118.4,78.4
			c21.6,0,40.8-4,56.8-12c3.2,15.2,23.2,19.2,42.4,19.2c20.8,0-2.4-16-2.4-34.4C302.9,426,294.1,405.2,298.1,390.8z"/>
		<path class="st3" d="M433.3,324.4c0,4-3.2,7.2-7.2,7.2l0,0c-4,0-7.2-3.2-7.2-7.2v-36.8c0-4,3.2-7.2,7.2-7.2l0,0
			c4,0,7.2,3.2,7.2,7.2V324.4z"/>
		<path class="st3" d="M135.7,413.2c0,24-15.2,44-32.8,44H87.7c-18.4,0-32.8-20-32.8-44l0,0c0-24,15.2-44,32.8-44h14.4
			C120.5,369.2,135.7,389.2,135.7,413.2L135.7,413.2z"/>
	</g>
	<path class="st4" d="M543.7,474c0,31.2-25.6,56.8-56.8,56.8s-56.8-25.6-56.8-56.8s25.6-56.8,56.8-56.8
		C518.9,417.2,543.7,442.8,543.7,474z"/>
	<path class="st5" d="M527.7,434c22.4,22.4,22.4,58.4,0,80c-22.4,22.4-58.4,22.4-80,0"/>
	<circle class="st2" cx="486.9" cy="474" r="36"/>
	<path class="st3" d="M512.5,449.2c13.6,13.6,13.6,36.8,0,50.4c-13.6,13.6-36.8,13.6-50.4,0"/>
	<circle class="st6" cx="486.9" cy="474" r="31.2"/>
	<path class="st7" d="M509.3,452.4c12,12,12,32,0,44s-32,12-44,0"/>
	<path class="st8" d="M502.1,474c0,8-6.4,16.8-14.4,16.8s-14.4-8.8-14.4-16.8s6.4-14.4,14.4-14.4C494.9,459.6,502.1,466,502.1,474z"
		/>
	<circle class="st9" cx="486.9" cy="474" r="14.4"/>
	<path class="st10" d="M486.9,459.6c8,0,14.4,6.4,14.4,14.4s-6.4,14.4-14.4,14.4"/>
	<path class="st11" d="M486.9,442.8c-1.6,0-3.2,0-4,0c0.8,4.8,2.4,8,4,8s4-3.2,4-8C490.1,442.8,488.5,442.8,486.9,442.8z"/>
	<path class="st12" d="M486.9,450.8c1.6,0,4-3.2,4-8c-1.6,0-2.4,0-4,0"/>
	<path class="st11" d="M482.9,505.2c2.4,0,5.6,0,8,0c-0.8-4.8-2.4-8-4-8S483.7,500.4,482.9,505.2z"/>
	<path class="st12" d="M491.7,505.2c-0.8-4.8-2.4-8-4-8"/>
	<path class="st11" d="M462.1,455.6c4,2.4,7.2,4,8.8,2.4c1.6-1.6,0-4.8-2.4-8.8C466.1,450.8,463.7,453.2,462.1,455.6z"/>
	<path class="st12" d="M470.9,458c1.6-1.6,0-4.8-2.4-8.8"/>
	<path class="st7" d="M492.5,470c2.4,3.2,1.6,7.2-1.6,9.6l0,0c-3.2,2.4-7.2,1.6-9.6-1.6l-30.4-40.8c-2.4-3.2-1.6-7.2,1.6-9.6l0,0
		c3.2-2.4,7.2-1.6,9.6,1.6L492.5,470z"/>
	<path class="st11" d="M456.5,478c4.8-0.8,8-2.4,8-4s-3.2-4-8-4c0,1.6,0,2.4,0,4C455.7,475.6,455.7,477.2,456.5,478z"/>
	<path class="st12" d="M463.7,474c0-1.6-3.2-4-8-4c0,1.6,0,2.4,0,4"/>
	<path class="st11" d="M462.1,493.2c1.6,2.4,4,4,5.6,5.6c2.4-3.2,4-7.2,2.4-8.8C469.3,489.2,466.1,490,462.1,493.2z"/>
	<path class="st12" d="M468.5,498.8c2.4-3.2,4-7.2,2.4-8.8"/>
	<path d="M233.3,470.8c0,1.6-1.6,3.2-3.2,3.2h-152c-1.6,0-3.2-1.6-3.2-3.2l0,0c0-1.6,1.6-3.2,3.2-3.2h152.8
		C232.5,467.6,233.3,469.2,233.3,470.8L233.3,470.8z"/>
	<path d="M87.7,468.4c0-36.8,29.6-67.2,67.2-67.2c36.8,0,67.2,29.6,67.2,67.2"/>
	<path class="st13" d="M223.7,468.4h-5.6c0-35.2-28.8-64-64-64s-64,28.8-64,64h-5.6c0-38.4,31.2-69.6,69.6-69.6
		S223.7,430,223.7,468.4z"/>
	<circle class="st4" cx="154.1" cy="470.8" r="60"/>
	<path class="st5" d="M196.5,428.4c23.2,23.2,23.2,61.6,0,85.6c-23.2,23.2-61.6,23.2-85.6,0"/>
	
		<ellipse transform="matrix(7.088903e-02 -0.9975 0.9975 7.088903e-02 -326.4396 591.1378)" class="st2" cx="154.1" cy="470.8" rx="37.6" ry="37.6"/>
	<path class="st3" d="M181.3,443.6c15.2,15.2,15.2,39.2,0,53.6c-14.4,15.2-39.2,15.2-53.6,0"/>
	<circle class="st6" cx="154.1" cy="470.8" r="32.8"/>
	<path class="st7" d="M177.3,447.6c12.8,12.8,12.8,33.6,0,47.2c-12.8,12.8-33.6,12.8-47.2,0"/>
	<path class="st8" d="M169.3,470.8c0,8.8-7.2,17.6-15.2,17.6c-8.8,0-15.2-9.6-15.2-17.6c0-8.8,7.2-15.2,15.2-15.2
		C162.9,455.6,169.3,462,169.3,470.8z"/>
	<path class="st9" d="M169.3,470.8c0,8.8-7.2,15.2-15.2,15.2c-8.8,0-15.2-7.2-15.2-15.2c0-8.8,7.2-15.2,15.2-15.2
		C162.9,455.6,169.3,462,169.3,470.8z"/>
	<path class="st10" d="M154.1,455.6c8.8,0,15.2,7.2,15.2,15.2c0,8.8-7.2,15.2-15.2,15.2"/>
	<path class="st11" d="M154.1,437.2c-1.6,0-3.2,0-4.8,0c0.8,4.8,2.4,8,4.8,8c2.4,0,4-3.2,4.8-8C157.3,438,155.7,437.2,154.1,437.2z"
		/>
	<path class="st12" d="M154.1,446c2.4,0,4-3.2,4.8-8c-1.6,0-3.2,0-4.8,0"/>
	<path class="st11" d="M150.1,503.6c3.2,0,5.6,0,8.8,0c-0.8-4.8-2.4-8-4.8-8S150.1,498.8,150.1,503.6z"/>
	<path class="st12" d="M158.9,503.6c-0.8-4.8-2.4-8-4.8-8"/>
	<path class="st11" d="M127.7,450.8c4,3.2,7.2,4,8.8,2.4c1.6-1.6,0-4.8-2.4-8.8C131.7,446,129.3,448.4,127.7,450.8z"/>
	<path class="st12" d="M136.5,453.2c1.6-1.6,0-4.8-2.4-8.8"/>
	<path class="st11" d="M180.5,490.8c-4-3.2-7.2-4-8.8-2.4s0,4.8,2.4,8.8c0.8-0.8,2.4-1.6,3.2-3.2
		C178.9,493.2,179.7,491.6,180.5,490.8z"/>
	<path class="st12" d="M177.3,494c0.8-0.8,1.6-2.4,3.2-3.2c-4-3.2-7.2-4-8.8-2.4"/>
	<path class="st11" d="M121.3,474.8c4.8-0.8,8-2.4,8-4.8s-3.2-4-8-4.8c0,1.6,0,3.2,0,4.8S121.3,474,121.3,474.8z"/>
	<path class="st12" d="M129.3,470.8c0-2.4-3.2-4-8-4.8c0,1.6,0,3.2,0,4.8"/>
	<path class="st11" d="M178.9,470.8c0,2.4,3.2,4,8,4.8c0.8-3.2,0.8-5.6,0-8.8C182.1,466.8,178.9,468.4,178.9,470.8z"/>
	<path class="st12" d="M186.9,466c-4.8,0.8-8,2.4-8,4.8"/>
	<path class="st11" d="M127.7,490.8c1.6,2.4,4,4.8,6.4,6.4c3.2-4,4-7.2,2.4-8.8C134.9,486.8,131.7,487.6,127.7,490.8z"/>
	<path class="st12" d="M134.1,497.2c3.2-4,4-7.2,2.4-8.8"/>
	<path class="st11" d="M174.1,444.4c-3.2,4-4,7.2-2.4,8.8c1.6,1.6,4.8,0,8.8-2.4C178.9,448.4,176.5,446,174.1,444.4z"/>
	<path class="st12" d="M174.1,444.4c-3.2,4-4,7.2-2.4,8.8"/>
	<path class="st2" d="M546.9,450c-7.2-36.8-74.4-76-112.8-76c-39.2,0-12.8,39.2-20,76H546.9z"/>
	<path class="st3" d="M527.7,450c-7.2-38.4-52-74.4-91.2-74.4s-34.4,36-42.4,74.4H527.7z"/>
	<path class="st14" d="M311.7,322c0,4.8-4,8.8-8.8,8.8H93.3c-4.8,0-8.8-4-8.8-8.8v-36c0-4.8,4-8.8,8.8-8.8l172.8,8.8
		c4.8,0,45.6-4.8,45.6,0L311.7,322L311.7,322z"/>
	<path class="st15" d="M311.7,322c0,4.8-4,8.8-8.8,8.8H93.3c-4.8,0-8.8-4-8.8-8.8l6.4-21.6c0-4.8,4-8.8,8.8-8.8l166.4-4.8
		c4.8,0,45.6-4.8,45.6,0V322z"/>
	<path class="st3" d="M455.7,385.2c0,5.6-39.2,91.2-44.8,91.2h-20.8c-5.6,0-10.4-4.8-10.4-10.4l20-115.2c0-5.6,11.2-43.2,16.8-43.2
		h14.4c5.6,0,10.4,4.8,10.4,10.4L455.7,385.2z"/>
	<path class="st2" d="M430.9,307.6h-14.4c-1.6,0-2.4,1.6-4,4.8c0.8,1.6,1.6,3.2,1.6,5.6l-12.8,148c0,4.8-7.2,8.8-13.6,9.6
		c0.8,0,1.6,0.8,2.4,0.8h20.8c5.6,0,16.8-4.8,16.8-10.4l12.8-148C440.5,312.4,436.5,307.6,430.9,307.6z"/>
	<path class="st16" d="M275.7,469.2C265.3,418,202.9,370,148.5,370s-82.4,48-92.8,99.2L275.7,469.2L275.7,469.2z"/>
	<g>
		<path class="st3" d="M275.7,469.2c-10.4-51.2-72.8-88.8-127.2-88.8s-83.2,36.8-93.6,88.8H275.7z"/>
		<path class="st3" d="M404.5,468.4c0,4-3.2,8-8,8H58.9c-4,0-8-3.2-8-8V466c0-4,3.2-8,8-8h338.4c4,0,8,3.2,8,8v2.4H404.5z"/>
		<path class="st3" d="M453.3,230c-3.2-0.8-7.2-0.8-11.2-0.8c-27.2,0-48.8,15.2-48.8,34.4c0,19.2,21.6,34.4,48.8,34.4
			c4,0,7.2,0,11.2-0.8V230z"/>
	</g>
	<path class="st3" d="M457.3,290.8c0,3.2-3.2,6.4-6.4,6.4l0,0c-3.2,0-6.4-3.2-6.4-6.4v-54.4c0-3.2,3.2-6.4,6.4-6.4l0,0
		c3.2,0,6.4,3.2,6.4,6.4V290.8z"/>
	<g>
		<path class="st16" d="M166.9,415.6c0,1.6-0.8,2.4-2.4,2.4h-33.6c-1.6,0-2.4-0.8-2.4-2.4l0,0c0-1.6,0.8-2.4,2.4-2.4h33.6
			C165.3,413.2,166.9,414,166.9,415.6L166.9,415.6z"/>
		<path class="st16" d="M166.9,429.2c0,1.6-0.8,2.4-2.4,2.4h-33.6c-1.6,0-2.4-0.8-2.4-2.4l0,0c0-1.6,0.8-2.4,2.4-2.4h33.6
			C165.3,426.8,166.9,427.6,166.9,429.2L166.9,429.2z"/>
		<path class="st16" d="M166.9,442.8c0,1.6-0.8,2.4-2.4,2.4h-33.6c-1.6,0-2.4-0.8-2.4-2.4l0,0c0-1.6,0.8-2.4,2.4-2.4h33.6
			C165.3,440.4,166.9,441.2,166.9,442.8L166.9,442.8z"/>
	</g>
	<circle class="st15" cx="387.7" cy="254.8" r="16.8"/>
	<circle class="st17" cx="379.7" cy="254.8" r="12.8"/>
	<path class="st18" d="M418.1,244.4c-3.2,0-5.6-2.4-5.6-5.6v-31.2l-20.8-20.8c-2.4-2.4-2.4-5.6,0-8c2.4-2.4,5.6-2.4,8,0l22.4,22.4
		c0.8,0.8,1.6,2.4,1.6,4v33.6C423.7,242,421.3,244.4,418.1,244.4z"/>
	<path class="st3" d="M378.1,146.8v48.8c11.2-2.4,19.2-12.8,19.2-24.8C398.1,158.8,389.3,149.2,378.1,146.8z"/>
</g>
<g id="street">
	<polyline class="st19" points="18.6,525.1 109.6,525.1 109.6,533.7 18.6,533.7 	"/>
	<polyline class="st19" points="137.4,525.1 228.4,525.1 228.4,533.7 137.4,533.7 	"/>
	<polyline class="st19" points="252.7,525.1 343.7,525.1 343.7,533.7 252.7,533.7 	"/>
	<polyline class="st19" points="371.6,525.1 462.6,525.1 462.6,533.7 371.6,533.7 	"/>
	<polyline class="st19" points="490.4,525.1 581.4,525.1 581.4,533.7 490.4,533.7 	"/>
</g>
<g id="sun">
	<rect x="260.8" y="157.4" class="st20" width="6.4" height="18.9"/>
	<rect x="260.8" y="64.5" class="st20" width="6.4" height="18.9"/>
	
		<rect x="221.7" y="150.1" transform="matrix(0.7071 -0.7071 0.7071 0.7071 -40.6448 208.3589)" class="st21" width="18.9" height="6.4"/>
	
		<rect x="287.4" y="84.4" transform="matrix(0.7071 -0.7071 0.7071 0.7071 25.0392 235.566)" class="st21" width="18.9" height="6.4"/>
	<rect x="208.1" y="117.2" class="st20" width="18.9" height="6.4"/>
	<rect x="301" y="117.2" class="st20" width="18.9" height="6.4"/>
	
		<rect x="228" y="78.1" transform="matrix(0.7071 -0.7071 0.7071 0.7071 5.8008 189.1206)" class="st21" width="6.4" height="18.9"/>
	
		<rect x="293.7" y="143.8" transform="matrix(0.7071 -0.7071 0.7071 0.7071 -21.4063 254.8044)" class="st21" width="6.4" height="18.9"/>
	<circle class="st21" cx="264" cy="120.4" r="30.4"/>
	<circle class="st20" cx="264" cy="120.4" r="23.3"/>
</g>
<g id="back.cloud" transform="translate(-115.99 -582.37)">
	<g id="g4074_1_" transform="translate(-399.01 459.27)">
		<path id="path3995_1_" class="st0" d="M700.3,149.7c-12.5,0-23.3,7.1-28.8,17.4c-5.4-5.6-13-9-21.4-9c-9.4,0-17.9,4.4-23.4,11.2
			c-2.9-2.4-6.6-3.8-10.6-3.8c-9.2,0-16.7,7.5-16.7,16.7c0,9.2,7.5,16.7,16.7,16.7c2,0,3.9-0.3,5.6-1c4.1,11.7,15.2,20.2,28.3,20.2
			c4.5,0,8.8-1,12.7-2.8c3,6,9.2,10.2,16.4,10.2c7.5,0,14-4.6,16.8-11.1c1.4,0.2,2.9,0.3,4.4,0.3c6.7,0,13-2,18.1-5.5
			c3.3,4.3,8.5,7,14.4,7c10.1,0,18.2-8.2,18.2-18.2c0-10.1-8.2-18.2-18.2-18.2h-0.1C731.4,162.9,717.4,149.7,700.3,149.7z"/>
		<path id="path4010_1_" class="st1" d="M700.3,154.6c-10.6,0-19.8,6-24.5,14.8c-0.7,1.4-2.1,2.3-3.6,2.5c-1.5,0.2-3.1-0.3-4.2-1.4
			c-4.6-4.7-10.9-7.6-18-7.6c-7.9,0-15,3.7-19.6,9.4c-0.8,1-2,1.6-3.3,1.8c-1.3,0.1-2.6-0.3-3.6-1.1c-2.1-1.7-4.6-2.7-7.5-2.7
			c-6.6,0-11.9,5.3-11.9,11.9c0,6.6,5.3,11.9,11.9,11.9c1.4,0,2.7-0.2,4-0.7c1.2-0.4,2.6-0.4,3.7,0.2c1.2,0.6,2.1,1.6,2.5,2.8
			c3.4,9.8,12.7,16.9,23.8,16.9c3.8,0,7.4-0.8,10.6-2.4c2.4-1.1,5.3-0.1,6.4,2.3c2.2,4.4,6.7,7.5,12,7.5c5.6,0,10.3-3.4,12.3-8.1
			c0.9-2,3-3.2,5.1-2.9c1.2,0.2,2.5,0.2,3.7,0.2c5.7,0,11-1.7,15.4-4.7c2.1-1.4,5-1,6.6,1c2.4,3.1,6.2,5.1,10.5,5.1
			c7.4,0,13.3-5.9,13.3-13.3c0-7.4-5.9-13.3-13.3-13.3h-0.1c-2.6,0-4.7-2-4.9-4.5C726.8,165.8,714.9,154.6,700.3,154.6L700.3,154.6z
			"/>
		<path id="path4020_1_" class="st0" d="M621.5,196.7c0,0-2.3-13.5,1.7-15.8c-6.3,2.5-5.2,17.4-5.2,17.4L621.5,196.7z"/>
		<path id="path4022_1_" class="st0" d="M719,208.5c0,0-2.3-13.5,1.7-15.8c-6.3,2.5-5.2,17.4-5.2,17.4L719,208.5z"/>
		<path id="path4024_1_" class="st0" d="M672.4,167.9c0,0,11,7.5,9.5,13.2c3.4-6.4-7.5-15.9-7.5-15.9L672.4,167.9L672.4,167.9z"/>
		<path id="path4005_1_" class="st0" d="M679.3,190.1c-8.5,0-15.4,6.9-15.4,15.4c0,1.2,0.2,2.5,0.4,3.6c0-0.1,0-0.2,0-0.3
			c0-8.5,6.9-15.4,15.4-15.4c7.3,0,13.4,5,15,11.8C694.6,196.8,687.7,190.1,679.3,190.1z"/>
	</g>
</g>
</svg>
